<?xml version="1.0" standalone="no"?>
<!DOCTYPE svg PUBLIC "-//W3C//DTD SVG 20010904//EN"
 "http://www.w3.org/TR/2001/REC-SVG-20010904/DTD/svg10.dtd">
<svg version="1.0" xmlns="http://www.w3.org/2000/svg"
 width="260.000000pt" height="260.000000pt" viewBox="0 0 260.000000 260.000000"
 preserveAspectRatio="xMidYMid meet">
<metadata>
Created by potrace 1.11, written by Peter Selinger 2001-2013
</metadata>
<g transform="translate(0.000000,260.000000) scale(0.100000,-0.100000)"
fill="#000000" stroke="none">
<path d="M1077 2203 c-4 -7 -515 -1368 -587 -1566 l-29 -77 222 2 221 3 51
145 51 145 290 3 289 2 51 -147 51 -148 222 -3 c121 -1 221 1 221 6 0 5 -137
375 -304 823 l-304 814 -220 3 c-122 1 -223 -1 -225 -5z m317 -740 c47 -149
86 -275 86 -280 0 -7 -360 -6 -368 1 -1 2 39 132 90 289 51 158 95 281 99 274
4 -6 46 -134 93 -284z"/>
</g>
</svg>
